Coordinates
version=1
nRows=60
nColumns=12
inDegrees=yes

Units are S.I. units (second, meters, Newtons, ...)
Angles are in degrees

endheader
time	SC_y	SC_z	SC_x	AC_y	AC_z	AC_x	GH_y	GH_z	GH_yy	EL_x	PS_y
       0.0              -22.09          33.03          66.26          60.52          7.756          16.81         -103.6          67.77          87.43           81.6          21.82
   0.01611              -22.09          33.03          66.25          60.52          7.753          16.81         -103.6          67.76          87.41          81.59          21.84
   0.03223              -22.09          33.03          66.24          60.51          7.751          16.81         -103.5          67.75          87.39          81.58          21.86
   0.04834               -22.1          33.03          66.23          60.51          7.748          16.81         -103.5          67.74          87.36          81.57          21.88
   0.06446               -22.1          33.03          66.22          60.51          7.745           16.8         -103.4          67.73          87.34          81.56           21.9
   0.08057              -22.11          33.03          66.21           60.5          7.742           16.8         -103.4          67.71          87.31          81.55          21.92
   0.09668              -22.11          33.03           66.2          60.49          7.739           16.8         -103.3           67.7          87.28          81.54          21.94
    0.1128              -22.12          33.03          66.19          60.49          7.735           16.8         -103.3          67.68          87.25          81.53          21.97
    0.1289              -22.13          33.03          66.17          60.48          7.732           16.8         -103.2          67.67          87.22          81.51          21.99
     0.145              -22.13          33.03          66.16          60.47          7.728           16.8         -103.2          67.65          87.18           81.5          22.02
    0.1611              -22.14          33.04          66.14          60.47          7.723           16.8         -103.1          67.63          87.15          81.48          22.05
    0.1773              -22.15          33.04          66.12          60.46          7.719           16.8         -103.0          67.61           87.1          81.46          22.08
    0.1934              -22.15          33.04          66.11          60.45          7.714          16.79         -103.0          67.59          87.06          81.45          22.12
    0.2095              -22.16          33.04          66.09          60.44          7.708          16.79         -102.9          67.56          87.01          81.43          22.16
    0.2256              -22.17          33.04          66.06          60.43          7.702          16.79         -102.8          67.54          86.96           81.4           22.2
    0.2417              -22.18          33.04          66.04          60.42          7.696          16.79         -102.7          67.51          86.91          81.38          22.24
    0.2578              -22.19          33.04          66.02          60.41          7.689          16.78         -102.6          67.48          86.85          81.36          22.29
    0.2739              -22.21          33.04          65.99          60.39          7.682          16.78         -102.5          67.45          86.78          81.33          22.34
    0.2901              -22.22          33.04          65.96          60.38          7.673          16.78         -102.4          67.41          86.71           81.3           22.4
    0.3062              -22.23          33.04          65.92          60.37          7.664          16.78         -102.2          67.37          86.63          81.27          22.47
    0.3223              -22.25          33.04          65.89          60.35          7.654          16.77         -102.1          67.33          86.54          81.23          22.54
    0.3384              -22.27          33.04          65.85          60.33          7.644          16.77         -101.9          67.28          86.45          81.19          22.61
    0.3545              -22.29          33.04           65.8          60.31          7.632          16.77         -101.8          67.23          86.34          81.15           22.7
    0.3706              -22.31          33.04          65.75          60.29          7.618          16.76         -101.6          67.18          86.23           81.1          22.79
    0.3867              -22.33          33.04           65.7          60.26          7.603          16.76         -101.4          67.11           86.1          81.04          22.89
    0.4029              -22.36          33.04          65.64          60.23          7.587          16.75         -101.1          67.04          85.95          80.98          23.01
     0.419              -22.39          33.04          65.57           60.2          7.568          16.74         -100.8          66.96          85.79          80.92          23.14
    0.4351              -22.42          33.04          65.49          60.16          7.547          16.74         -100.5          66.87          85.61          80.84          23.29
    0.4512              -22.46          33.04          65.41          60.12          7.524          16.73         -100.2          66.77           85.4          80.75          23.45
    0.4673               -22.5          33.04          65.31          60.08          7.497          16.72         -99.79          66.65          85.17          80.66          23.64
    0.4834              -22.55          33.04           65.2          60.02          7.467          16.71         -99.34          66.52           84.9          80.54          23.86
    0.4995              -22.61          33.05          65.07          59.96          7.432           16.7         -98.83          66.37           84.6          80.42           24.1
    0.5157              -22.67          33.05          64.92          59.89          7.391          16.68         -98.23          66.19          84.24          80.27          24.39
    0.5318              -22.75          33.05          64.74          59.81          7.344          16.67         -97.54          65.99          83.83           80.1          24.72
    0.5479              -22.83          33.05          64.54          59.72          7.289          16.65         -96.73          65.75          83.35           79.9           25.1
     0.564              -22.94          33.05           64.3           59.6          7.225          16.63         -95.78          65.47          82.79          79.66          25.56
    0.5801              -23.06          33.05          64.02          59.47          7.148           16.6         -94.65          65.14          82.11          79.38           26.1
    0.5962              -23.21          33.06          63.68          59.31          7.055          16.57         -93.29          64.74          81.31          79.04          26.75
    0.6123              -23.39          33.06          63.27          59.12          6.944          16.53         -91.65          64.26          80.33          78.64          27.54
    0.6285              -23.61          33.07          62.76          58.88          6.807          16.49         -89.64          63.67          79.14          78.14           28.5
    0.6446              -23.88          33.07          62.14          58.59          6.639          16.43         -87.17          62.94          77.67          77.52          29.68
    0.6607              -24.21          33.08          61.37          58.23          6.429          16.36         -84.08          62.03          75.83          76.76          31.16
    0.6768              -24.64          33.09           60.4          57.77          6.165          16.27          -80.2          60.89          73.52          75.79          33.02
    0.6929              -25.18           33.1          59.16          57.19          5.829          16.15         -75.25          59.43          70.58          74.57          35.39
     0.709              -25.87          33.11          57.57          56.44          5.398          16.01         -68.93          57.57          66.82           73.0          38.41
    0.7251              -26.75          33.13          55.54          55.49          4.846          15.82         -60.81          55.18           62.0          70.98           42.3
    0.7413              -27.88          33.16          52.94          54.27          4.141          15.58         -50.44          52.13          55.83          68.41          47.26
    0.7574              -29.31          33.19          49.67          52.74          3.255          15.28          -37.4           48.3          48.08          65.17           53.5
    0.7735              -31.04          33.22          45.68          50.87          2.174          14.91         -21.51          43.62          38.64          61.23          61.11
    0.7896              -33.05          33.27          41.07           48.7         0.9216          14.49         -3.095           38.2          27.69          56.66          69.92
    0.8057              -35.22          33.31          36.07          46.35        -0.4346          14.03          16.85          32.34          15.83          51.71          79.47
    0.8218               -37.4          33.36          31.07          44.01         -1.791          13.57          36.79          26.47          3.979          46.76          89.01
    0.8379              -39.41           33.4          26.45          41.84         -3.043          13.14          55.21          21.05         -6.969          42.19          97.83
     0.854              -41.14          33.44          22.47          39.97         -4.124          12.78           71.1          16.38         -16.41          38.24          105.4
    0.8702              -42.56          33.47           19.2          38.44          -5.01          12.48          84.13          12.54         -24.17          35.01          111.7
    0.8863              -43.69          33.49           16.6          37.22         -5.716          12.24           94.5          9.489         -30.33          32.43          116.6
    0.9024              -44.58          33.51          14.56          36.26         -6.268          12.05          102.6          7.101         -35.15          30.42          120.5
    0.9185              -45.27          33.52          12.98          35.52         -6.698           11.9          108.9          5.239         -38.92          28.85          123.5
    0.9346              -45.81          33.53          11.74          34.93         -7.034          11.79          113.9          3.785         -41.85          27.62          125.9
    0.9507              -46.23          33.54          10.76          34.48         -7.298           11.7          117.8          2.642         -44.16          26.66          127.8
